# xmcd CD database file
#
# Track frame offsets:
#	183
#	12558
#	23205
#	35345
#	49778
#	60448
#	72668
#	85748
#	96585
#	109465
#	119343
#	128930
#	139168
#	151130
#	162633
#	176395
#	186605
#	200253
#	209883
#	223003
#	232888
#	244713
#	255835
#	263958
#	274635
#
# Disc length: 3815 seconds
#
# Revision: 2
# Processed by: cddbd v1.5.2PL0 Copyright (c) Steve Scherf et al.
# Submitted via: CDex 1.70beta2
#
DISCID=780ee519
DTITLE=Various Artist - Country Giants Vol 1
DYEAR=1900
DGENRE=Country
TTITLE0=Kenny Rogers - Reuben James
TTITLE1=Dolly Parton - Honky Tonk Angels
TTITLE2=Faron Young - Sweet Dreams
TTITLE3=Patsy Cline - Then You'll Know
TTITLE4=Billy Jo Spears - I'm So Lonesome I Could Cry
TTITLE5=Willie Nelson - I Can't Find The Time
TTITLE6=Kenny Rogers - Ruby, Don't Take You rLove To Town
TTITLE7=Stonewall Jackson - Things To Talk About
TTITLE8=Johnny Paycheck - Talk About Me
TTITLE9=Willie Nelson - I Didn't Sleep A Wink
TTITLE10=Ned Miller - From A Jack To A King
TTITLE11=Waylon Jennings - White Lightning
TTITLE12=Billy Jo Spears - Look What They've Done To My Song
TTITLE13=Dolly Parton - Makin' Believe
TTITLE14=Willie Nelson - Home Is Where You're Happy
TTITLE15=Ferlin Husky - Wings Of A Dove
TTITLE16=Kenny Rogers - Shine On Ruby Mountains
TTITLE17=Donna Fargo - Sticks and Stones
TTITLE18=Lyn Anderson and George Jones - Rose Garden
TTITLE19=Patsy Cline - Turn The Cards Slowly
TTITLE20=Johnny Lee - Ramblin' Rose
TTITLE21=Faron Young - Country Girl
TTITLE22=Roger Miller - Dear Heart
TTITLE23=Patsy Cline - The Heart You Break May Be Your Own
TTITLE24=Roger Miller - Little Green Apples
EXTD=
EXTT0=
EXTT1=
EXTT2=
EXTT3=
EXTT4=
EXTT5=
EXTT6=
EXTT7=
EXTT8=
EXTT9=
EXTT10=
EXTT11=
EXTT12=
EXTT13=
EXTT14=
EXTT15=
EXTT16=
EXTT17=
EXTT18=
EXTT19=
EXTT20=
EXTT21=
EXTT22=
EXTT23=
EXTT24=
PLAYORDER=
